<?xml version="1.0" encoding="utf-8"?>
<!-- Generator: Adobe Illustrator 14.0.0, SVG Export Plug-In . SVG Version: 6.00 Build 43363)  -->
<!DOCTYPE svg PUBLIC "-//W3C//DTD SVG 1.1//EN" "http://www.w3.org/Graphics/SVG/1.1/DTD/svg11.dtd">
<svg version="1.1" id="图层_1" xmlns="http://www.w3.org/2000/svg" xmlns:xlink="http://www.w3.org/1999/xlink" x="0px" y="0px"
	 width="48px" height="48px" viewBox="0 0 48 48" enable-background="new 0 0 48 48" xml:space="preserve">
<path fill="#00FCFF" d="M21.065,27.383c-0.543-0.188-0.961-0.629-1.139-1.177L18.9,23.558c-0.314-0.966-2.151-2.086-3.164-2.086
	H8.719c-1.017,0-2.85,1.12-3.164,2.086l-1.008,2.62c-0.178,0.549-0.591,0.994-1.134,1.182c-1.027,0.355-1.552,1.425-1.552,2.686
	v8.766c0,0.904,0.736,1.641,1.641,1.641h1.139c0.905,0,1.641-0.736,1.641-1.641v-0.516c0-1.036,0.839-1.875,1.875-1.875h8.142
	c1.036,0,1.875,0.839,1.875,1.875v0.417c0,0.961,0.778,1.744,1.744,1.744h1.041c0.904,0,1.641-0.736,1.641-1.641V36.48V30.05
	C22.594,28.784,22.087,27.729,21.065,27.383z M9.881,23.815h4.767c1.219,0,2.297,0.782,2.677,1.94l0.352,0.82
	c0.131,0.31-0.094,0.651-0.432,0.651H7.298c-0.333,0-0.563-0.337-0.431-0.646L7.2,25.784C7.565,24.612,8.648,23.815,9.881,23.815z
	 M7.875,33.19H4.669c-0.516,0-0.938-0.422-0.938-0.938v-0.146c0-0.591,0.543-1.036,1.12-0.919l2.789,0.563
	c0.436,0.089,0.755,0.474,0.755,0.919C8.396,32.956,8.161,33.19,7.875,33.19z M19.739,33.19h-3.207c-0.286,0-0.52-0.234-0.52-0.521
	c0-0.445,0.314-0.83,0.754-0.919l2.789-0.563c0.582-0.117,1.121,0.328,1.121,0.919v0.146C20.677,32.769,20.255,33.19,19.739,33.19z
	 M46.078,30.045c0-1.261-0.506-2.344-1.528-2.709c-0.544-0.192-0.961-0.643-1.144-1.191l-1.021-2.592
	c-0.314-0.966-2.152-2.086-3.164-2.086h-7.018c-1.018,0-2.85,1.12-3.164,2.086l-1.008,2.625c-0.178,0.549-0.591,0.994-1.135,1.182
	c-1.026,0.355-1.551,1.425-1.551,2.686v8.766c0,0.904,0.735,1.641,1.641,1.641h1.139c0.904,0,1.641-0.736,1.641-1.641v-0.516
	c0-1.036,0.839-1.875,1.875-1.875h8.143c1.035,0,1.875,0.839,1.875,1.875v0.417c0,0.961,0.777,1.744,1.743,1.744h1.041
	c0.904,0,1.641-0.736,1.641-1.641V36.48v-6.436H46.078z M33.365,23.815h4.768c1.219,0,2.297,0.782,2.677,1.94l0.352,0.82
	c0.131,0.31-0.094,0.651-0.432,0.651h-9.946c-0.333,0-0.563-0.337-0.432-0.646l0.333-0.797
	C31.05,24.612,32.133,23.815,33.365,23.815z M31.359,33.19h-3.206c-0.516,0-0.938-0.422-0.938-0.938v-0.146
	c0-0.591,0.544-1.036,1.12-0.919l2.789,0.563c0.436,0.089,0.755,0.474,0.755,0.919C31.88,32.956,31.646,33.19,31.359,33.19z
	 M43.224,33.19h-3.206c-0.286,0-0.521-0.234-0.521-0.521c0-0.445,0.313-0.83,0.755-0.919l2.789-0.563
	c0.581-0.117,1.12,0.328,1.12,0.919v0.146C44.161,32.769,43.739,33.19,43.224,33.19z M18.501,17.118h0.019
	c-0.089-0.014-0.178-0.023-0.268-0.023 M15.089,17.094c0.066,0.014,0.136,0.023,0.207,0.023"/>
<path fill="#00FCFF" d="M33.544,12.13c-0.544-0.188-0.956-0.633-1.135-1.181l-1.008-2.62c-0.313-0.966-2.151-2.086-3.164-2.086
	h-8.892c-1.017,0-2.85,1.12-3.164,2.086l-1.008,2.62c-0.178,0.548-0.59,0.994-1.134,1.181c-1.026,0.356-1.552,1.425-1.552,2.686
	v1.341c0,0.516,0.422,0.938,0.938,0.938h1.664c-0.417-0.094-0.731-0.469-0.731-0.914v-0.146c0-0.59,0.543-1.036,1.12-0.918
	l2.789,0.563c0.436,0.089,0.755,0.473,0.755,0.918c0,0.281-0.22,0.511-0.501,0.521c0.595,0.098,1.102,0.525,1.293,1.111l0.141,0.44
	c0.126,0.389,0.488,0.647,0.891,0.647h6.244c0.408,0,0.769-0.262,0.891-0.647l0.141-0.44c0.192-0.586,0.689-1.008,1.284-1.111
	h-0.375c-0.281,0-0.516-0.225-0.52-0.511c-0.005-0.45,0.309-0.844,0.754-0.928l2.789-0.563c0.582-0.117,1.121,0.328,1.121,0.918
	v0.146c0,0.445-0.314,0.82-0.731,0.914h1.711c0.516,0,0.938-0.422,0.938-0.938v-1.341C35.096,13.555,34.57,12.486,33.544,12.13z
	 M29.742,12.003H17.925c-0.333,0-0.563-0.337-0.431-0.647l0.333-0.797c0.366-1.172,1.453-1.969,2.686-1.969h6.642
	c1.219,0,2.297,0.783,2.677,1.941l0.352,0.82C30.305,11.661,30.08,12.003,29.742,12.003z M29.686,17.094
	c-0.094,0-0.188,0.009-0.276,0.023 M32.24,17.118c0.07,0,0.141-0.009,0.207-0.023"/>
</svg>
