<?xml version="1.0" encoding="utf-8"?>
<!-- Generator: Adobe Illustrator 23.0.0, SVG Export Plug-In . SVG Version: 6.00 Build 0)  -->
<svg version="1.1" id="图层_1" xmlns="http://www.w3.org/2000/svg" xmlns:xlink="http://www.w3.org/1999/xlink" x="0px" y="0px"
	 viewBox="0 0 32 32" style="enable-background:new 0 0 32 32;" xml:space="preserve">
<style type="text/css">
	.st0{fill-rule:evenodd;clip-rule:evenodd;fill:#00FCFF;}
</style>
<g>
	<g>
		<path class="st0" d="M4.5,9.3h22c0.6,0,1-0.4,1-1s-0.4-1-1-1h-22c-0.6,0-1,0.4-1,1S3.9,9.3,4.5,9.3z M26.5,14.3h-22
			c-0.6,0-1,0.4-1,1c0,0.6,0.4,1,1,1h22c0.6,0,1-0.4,1-1C27.5,14.7,27.1,14.3,26.5,14.3z M26.5,21.3h-22c-0.6,0-1,0.4-1,1s0.4,1,1,1
			h22c0.6,0,1-0.4,1-1S27.1,21.3,26.5,21.3z"/>
	</g>
</g>
</svg>
