<?xml version="1.0" encoding="utf-8"?>
<!-- Generator: Adobe Illustrator 16.0.0, SVG Export Plug-In . SVG Version: 6.00 Build 0)  -->
<!DOCTYPE svg PUBLIC "-//W3C//DTD SVG 1.1//EN" "http://www.w3.org/Graphics/SVG/1.1/DTD/svg11.dtd">
<svg version="1.1" id="图层_1" xmlns="http://www.w3.org/2000/svg" xmlns:xlink="http://www.w3.org/1999/xlink" x="0px" y="0px"
	 width="32px" height="32px" viewBox="0 0 32 32" enable-background="new 0 0 32 32" xml:space="preserve">
<g>
	<g>
		<path fill-rule="evenodd" clip-rule="evenodd" fill="#FFFFFF" d="M4.5,9.25h22c0.552,0,1-0.448,1-1s-0.448-1-1-1h-22
			c-0.552,0-1,0.448-1,1S3.948,9.25,4.5,9.25z M26.5,14.25h-22c-0.552,0-1,0.448-1,1c0,0.553,0.448,1,1,1h22c0.552,0,1-0.447,1-1
			C27.5,14.698,27.052,14.25,26.5,14.25z M26.5,21.25h-22c-0.552,0-1,0.447-1,1s0.448,1,1,1h22c0.552,0,1-0.447,1-1
			S27.052,21.25,26.5,21.25z"/>
	</g>
</g>
</svg>
