<?xml version="1.0" encoding="utf-8"?>
<!-- Generator: Adobe Illustrator 16.0.0, SVG Export Plug-In . SVG Version: 6.00 Build 0)  -->
<!DOCTYPE svg PUBLIC "-//W3C//DTD SVG 1.1//EN" "http://www.w3.org/Graphics/SVG/1.1/DTD/svg11.dtd">
<svg version="1.1" id="图层_1" xmlns="http://www.w3.org/2000/svg" xmlns:xlink="http://www.w3.org/1999/xlink" x="0px" y="0px"
	 width="32px" height="32px" viewBox="0 0 32 32" enable-background="new 0 0 32 32" xml:space="preserve">
<g>
	<g>
		<path fill-rule="evenodd" clip-rule="evenodd" fill="#FFFFFF" d="M25.5,5.25h-20c-1.104,0-2,0.896-2,2v12c0,1.104,0.896,2,2,2h3
			v0.277c0.295-0.172,0.634-0.277,1-0.277c1.104,0,2,0.896,2,2v3l0.988,0.012c1.704-1.704,5.012-5.012,5.012-5.012h8
			c1.104,0,2-0.896,2-2v-12C27.5,6.146,26.604,5.25,25.5,5.25z M25.5,18.25c0,0.553-0.447,1-1,1h-8.375l-2.625,3v-1
			c0-1.104-0.896-2-2-2h-5c-0.553,0-1-0.447-1-1v-10c0-0.552,0.447-1,1-1h18c0.553,0,1,0.448,1,1V18.25z M10.5,12.25
			c-0.553,0-1,0.447-1,1s0.447,1,1,1c0.552,0,1-0.447,1-1S11.052,12.25,10.5,12.25z M15.5,12.25c-0.553,0-1,0.447-1,1s0.447,1,1,1
			s1-0.447,1-1S16.053,12.25,15.5,12.25z M20.5,12.25c-0.553,0-1,0.447-1,1s0.447,1,1,1c0.552,0,1-0.447,1-1
			S21.052,12.25,20.5,12.25z"/>
	</g>
</g>
</svg>
