<?xml version="1.0" standalone="no"?><!DOCTYPE svg PUBLIC "-//W3C//DTD SVG 1.1//EN" "http://www.w3.org/Graphics/SVG/1.1/DTD/svg11.dtd"><svg t="1593430029714" class="icon" viewBox="0 0 1024 1024" version="1.1" xmlns="http://www.w3.org/2000/svg" p-id="4293" width="48" height="48" xmlns:xlink="http://www.w3.org/1999/xlink"><defs><style type="text/css"></style></defs><path d="M339.968 739.328c52.224 30.72 110.08 45.568 172.032 45.568 61.952 0 118.784-14.848 171.52-45.568 52.224-30.72 94.72-71.168 124.928-123.392 30.72-52.224 46.08-108.544 46.08-170.496 0-61.952-15.36-118.272-46.08-170.496s-72.704-93.184-124.928-123.392c-52.736-30.72-109.568-45.568-171.52-45.568-61.952 0-119.808 14.848-172.032 45.568-52.224 30.208-93.696 71.168-124.416 123.392s-46.08 108.544-46.08 170.496c0 61.952 15.36 118.272 46.08 170.496 30.72 52.224 71.68 93.184 124.416 123.392z m-0.512-392.192c17.92-30.72 40.96-53.248 72.704-71.68 29.696-17.92 62.464-26.112 99.84-26.112 36.864 0 69.12 8.704 99.328 26.112 32.256 18.432 55.808 41.984 73.216 71.68 17.92 31.232 26.624 62.464 26.624 98.304s-8.704 67.072-26.624 98.304c-17.408 29.696-40.96 53.248-73.216 71.68-30.208 17.408-62.464 26.112-99.328 26.112-37.376 0-70.144-8.704-99.84-26.112-31.744-18.432-54.784-41.472-72.704-71.68-17.92-31.232-26.624-62.464-26.624-98.304s8.704-67.072 26.624-98.304z" fill="#ffffff" p-id="4294"></path><path d="M512 558.08c31.232 0 57.856-10.752 80.384-32.768 23.04-22.016 33.792-48.64 33.792-79.872s-11.264-57.856-33.792-79.872c-22.528-23.04-49.152-33.792-80.384-33.792S454.144 343.04 431.616 365.568c-23.04 22.016-33.792 48.64-33.792 79.872s11.264 57.856 33.792 79.872c22.528 22.016 49.152 32.768 80.384 32.768zM772.608 730.624a383.41632 383.41632 0 0 1-258.56 100.352c-98.304 0-191.488-36.864-262.656-104.448-17.408-16.384-45.056-15.872-61.44 1.536-16.384 17.408-15.872 45.056 1.536 61.44 87.552 82.432 201.728 128 322.048 128 117.76 0 229.888-43.52 316.928-122.88 17.92-16.384 18.944-43.52 3.072-61.44-15.872-17.408-43.52-18.432-60.928-2.56z" fill="#ffffff" p-id="4295"></path></svg>