<?xml version="1.0" encoding="utf-8"?>
<!-- Generator: Adobe Illustrator 14.0.0, SVG Export Plug-In . SVG Version: 6.00 Build 43363)  -->
<!DOCTYPE svg PUBLIC "-//W3C//DTD SVG 1.1//EN" "http://www.w3.org/Graphics/SVG/1.1/DTD/svg11.dtd">
<svg version="1.1" id="图层_1" xmlns="http://www.w3.org/2000/svg" xmlns:xlink="http://www.w3.org/1999/xlink" x="0px" y="0px"
	 width="48px" height="48px" viewBox="0 0 48 48" enable-background="new 0 0 48 48" xml:space="preserve">
<path fill="#919DCD" d="M15.936,34.656c2.448,1.439,5.16,2.136,8.064,2.136c2.904,0,5.568-0.696,8.04-2.136
	c2.448-1.44,4.44-3.336,5.856-5.784c1.438-2.448,2.16-5.088,2.16-7.992c0-2.904-0.722-5.544-2.16-7.992
	c-1.44-2.448-3.408-4.368-5.856-5.784c-2.472-1.44-5.136-2.136-8.04-2.136c-2.904,0-5.616,0.696-8.064,2.136
	c-2.448,1.416-4.392,3.336-5.832,5.784c-1.44,2.448-2.16,5.088-2.16,7.992c0,2.904,0.72,5.544,2.16,7.992
	S13.464,33.24,15.936,34.656z M15.912,16.272c0.84-1.44,1.92-2.496,3.408-3.36c1.392-0.84,2.928-1.224,4.68-1.224
	c1.729,0,3.24,0.408,4.656,1.224c1.512,0.864,2.615,1.968,3.432,3.36c0.84,1.464,1.248,2.928,1.248,4.608
	c0,1.68-0.408,3.144-1.248,4.608c-0.816,1.392-1.92,2.496-3.432,3.359c-1.416,0.815-2.928,1.225-4.656,1.225
	c-1.752,0-3.288-0.408-4.68-1.225c-1.488-0.863-2.568-1.943-3.408-3.359c-0.84-1.464-1.248-2.928-1.248-4.608
	C14.664,19.2,15.072,17.736,15.912,16.272z"/>
<path fill="#919DCD" d="M24,26.16c1.464,0,2.712-0.504,3.768-1.536c1.08-1.032,1.584-2.28,1.584-3.744s-0.526-2.712-1.584-3.744
	c-1.056-1.08-2.304-1.584-3.768-1.584s-2.712,0.528-3.768,1.584c-1.08,1.032-1.584,2.28-1.584,3.744s0.528,2.712,1.584,3.744
	S22.536,26.16,24,26.16z M36.216,34.248c-3.312,3.025-7.634,4.703-12.12,4.704c-4.608,0-8.976-1.728-12.312-4.896
	c-0.816-0.77-2.112-0.744-2.88,0.07s-0.744,2.112,0.072,2.88c4.104,3.864,9.456,6,15.096,6c5.52,0,10.776-2.04,14.856-5.76
	c0.84-0.769,0.889-2.04,0.146-2.88C38.328,33.552,37.032,33.504,36.216,34.248z"/>
</svg>
